# xmcd
#
# Track frame offsets: 
#        225
#        13582
#        25298
#        43157
#        65405
#        82746
#        91695
#        107012
#        114899
#        131814
#        148703
#        166414
#        191569
#        212868
#
# Disc length: 3187 seconds
#
# Revision: 4
# Processed by: cddbd v1.5.2PL0 Copyright (c) Steve Scherf et al.
# Submitted via: ExactAudioCopy v1.0b1
#
DISCID=b90c700e
DTITLE=Various Artist - The Magic Of Black Music
DYEAR=1900
DGENRE=Blues
TTITLE0=Sam and dave - Soul Man
TTITLE1=percy sledge - the dock of the bay
TTITLE2=aaron neville - house on a hill
TTITLE3=barry white and his orchestra - love makin music
TTITLE4=marvin gaye - sexual healing
TTITLE5=al jarreau - ain't no sunshine
TTITLE6=the temptations feat. eddie kendricks - papa was a rolling sto
TTITLE6=ne
TTITLE7=eddie floyd - knock on wood
TTITLE8=ike and tina turner - golden empire
TTITLE9=frankie gaye - i heard it through the grapevine
TTITLE10=kool and the gang - ladies night
TTITLE11=grand master and melle mel - white lines
TTITLE12=indeep - last night a dj saved my life
TTITLE13=hot chocolate feat. errol brown - you sexy thing
EXTD=
EXTT0=
EXTT1=
EXTT2=
EXTT3=
EXTT4=
EXTT5=
EXTT6=
EXTT7=
EXTT8=
EXTT9=
EXTT10=
EXTT11=
EXTT12=
EXTT13=
PLAYORDER=
